<?xml version="1.0" encoding="iso-8859-1"?>
<!-- Uploaded to: SVG Repo, www.svgrepo.com, Generator: SVG Repo Mixer Tools -->
<svg height="800px" width="800px" version="1.1" id="Capa_1" xmlns="http://www.w3.org/2000/svg" xmlns:xlink="http://www.w3.org/1999/xlink" 
	 viewBox="0 0 31.493 31.493" xml:space="preserve">
<g>
	<g>
		<path style="fill:#030104;" d="M16.257,14.159c-0.073-0.957-0.543-1.854-1.289-2.458L5.7,4.199C5.078,3.696,4.296,3.42,3.498,3.42
			c-1.062,0-2.053,0.473-2.721,1.298c-1.213,1.5-0.98,3.709,0.519,4.923l6.38,5.164l-6.763,7.408
			c-1.301,1.424-1.2,3.643,0.226,4.944c0.645,0.59,1.483,0.915,2.358,0.915c0.981,0,1.924-0.416,2.586-1.141l9.268-10.15
			C15.999,16.071,16.329,15.116,16.257,14.159z M13.873,15.433l-9.268,10.15c-0.507,0.557-1.56,0.605-2.118,0.098
			c-0.61-0.559-0.654-1.51-0.097-2.121l8.196-8.975l-8.032-6.5c-0.643-0.52-0.742-1.467-0.222-2.11
			c0.286-0.354,0.711-0.556,1.166-0.556c0.348,0,0.674,0.115,0.944,0.334l9.267,7.502c0.319,0.259,0.521,0.643,0.552,1.054
			C14.292,14.719,14.151,15.129,13.873,15.433z"/>
		<path style="fill:#030104;" d="M30.195,11.701l-9.269-7.502c-0.621-0.503-1.401-0.78-2.201-0.78c-1.064,0-2.056,0.474-2.723,1.299
			c-1.213,1.5-0.981,3.709,0.519,4.923l6.381,5.164l-6.763,7.407c-0.631,0.689-0.955,1.584-0.912,2.521
			c0.043,0.934,0.446,1.795,1.136,2.425c0.647,0.591,1.485,0.916,2.359,0.916c0.981,0,1.923-0.416,2.584-1.142l9.27-10.148
			c0.648-0.709,0.979-1.665,0.907-2.623C31.411,13.202,30.941,12.306,30.195,11.701z M29.1,15.433l-9.27,10.15
			c-0.508,0.557-1.561,0.604-2.118,0.096c-0.296-0.271-0.469-0.64-0.487-1.039c-0.018-0.399,0.121-0.783,0.392-1.08l8.195-8.975
			l-8.032-6.5c-0.643-0.52-0.742-1.467-0.222-2.11c0.286-0.354,0.712-0.557,1.168-0.557c0.346,0,0.672,0.116,0.942,0.335
			l9.268,7.502c0.319,0.259,0.521,0.643,0.552,1.054C29.52,14.719,29.38,15.128,29.1,15.433z"/>
	</g>
</g>
</svg>